<?xml version="1.0" encoding="UTF-8" standalone="no"?>
<!-- Created with Inkscape (http://www.inkscape.org/) -->

<svg
   width="38.286079mm"
   height="10.33566mm"
   viewBox="0 0 38.286079 10.33566"
   version="1.1"
   id="svg5"
   inkscape:version="1.1.2 (0a00cf5339, 2022-02-04)"
   sodipodi:docname="runMate.svg"
   xmlns:inkscape="http://www.inkscape.org/namespaces/inkscape"
   xmlns:sodipodi="http://sodipodi.sourceforge.net/DTD/sodipodi-0.dtd"
   xmlns:xlink="http://www.w3.org/1999/xlink"
   xmlns="http://www.w3.org/2000/svg"
   xmlns:svg="http://www.w3.org/2000/svg">
  <sodipodi:namedview
     id="namedview7"
     pagecolor="#ffffff"
     bordercolor="#000000"
     borderopacity="0.25"
     inkscape:pageshadow="2"
     inkscape:pageopacity="0.0"
     inkscape:pagecheckerboard="0"
     inkscape:document-units="mm"
     showgrid="false"
     lock-margins="true"
     fit-margin-top="0.3"
     fit-margin-left="0.3"
     fit-margin-right="0.3"
     fit-margin-bottom="0.3"
     inkscape:zoom="1.33"
     inkscape:cx="419.17293"
     inkscape:cy="-22.180451"
     inkscape:window-width="1846"
     inkscape:window-height="1016"
     inkscape:window-x="1994"
     inkscape:window-y="27"
     inkscape:window-maximized="1"
     inkscape:current-layer="g917" />
  <defs
     id="defs2">
    <linearGradient
       id="paint0_linear_47_40"
       x1="19.535101"
       y1="14.2579"
       x2="19.6908"
       y2="19.075399"
       gradientUnits="userSpaceOnUse">
      <stop
         stop-color="#0E0E0E"
         stop-opacity="0"
         id="stop854" />
      <stop
         offset="1"
         stop-color="#0E0E0E"
         id="stop856" />
    </linearGradient>
    <linearGradient
       id="paint1_linear_47_40"
       x1="1.34764"
       y1="3.9799302e-09"
       x2="1.50331"
       y2="4.8175502"
       gradientUnits="userSpaceOnUse">
      <stop
         stop-color="#0E0E0E"
         stop-opacity="0"
         id="stop859" />
      <stop
         offset="1"
         stop-color="#0E0E0E"
         id="stop861" />
    </linearGradient>
    <linearGradient
       id="paint2_linear_47_40"
       x1="19.535101"
       y1="118.258"
       x2="19.6908"
       y2="123.075"
       gradientUnits="userSpaceOnUse">
      <stop
         stop-color="#0E0E0E"
         stop-opacity="0"
         id="stop864" />
      <stop
         offset="1"
         stop-color="#0E0E0E"
         id="stop866" />
    </linearGradient>
    <linearGradient
       id="paint4_linear_47_40"
       x1="19.535101"
       y1="66.257896"
       x2="19.6908"
       y2="71.075401"
       gradientUnits="userSpaceOnUse">
      <stop
         stop-color="#0E0E0E"
         stop-opacity="0"
         id="stop874" />
      <stop
         offset="1"
         stop-color="#0E0E0E"
         id="stop876" />
    </linearGradient>
    <linearGradient
       inkscape:collect="always"
       xlink:href="#paint1_linear_47_40"
       id="linearGradient921"
       gradientUnits="userSpaceOnUse"
       x1="1.34764"
       y1="3.9799302e-09"
       x2="1.50331"
       y2="4.8175502" />
  </defs>
  <g
     inkscape:label="Layer 1"
     inkscape:groupmode="layer"
     id="layer1"
     transform="translate(-31.511774,-80.895637)">
    <g
       style="fill:none"
       id="g917"
       transform="matrix(0.26458333,0,0,0.26458333,42.812014,26.433725)">
      <g
         id="g1982"
         transform="translate(-51.566509,91.276879)">
        <path
           d="m 39.8258,119.571 -2.2638,4.744 c -0.4473,0.938 -1.3937,1.535 -2.4325,1.535 h -21.77 c -1.2495,0 -2.2131,1.1 -2.0483,2.338 l 2.4283,18.251 c 0.0881,0.662 0.3793,1.281 0.8335,1.771 l 2.3144,2.498 c 0.9439,1.019 2.6477,0.351 2.6477,-1.038 v -30.244 c 0,-1.34 1.086,-2.426 2.4257,-2.426 h 16.2433 c 1.3213,0 2.1907,1.378 1.6217,2.571 z"
           stroke="#ceff45"
           stroke-width="2.60544"
           id="path836" />
        <path
           d="m 23.8925,136.316 h 5.218 c 0.2061,0 0.3359,0.222 0.235,0.402 l -2.2707,4.043 c -0.0477,0.085 -0.1375,0.137 -0.235,0.137 h -2.9473 c -0.1489,0 -0.2696,-0.12 -0.2696,-0.269 v -2.022 -2.021 c 0,-0.149 0.1207,-0.27 0.2696,-0.27 z"
           stroke="#ceff45"
           stroke-width="1.97654"
           id="path838" />
        <rect
           x="18.1875"
           y="118.258"
           width="2.6952801"
           height="6.289"
           fill="url(#paint2_linear_47_40)"
           id="rect840"
           style="fill:url(#paint2_linear_47_40)" />
        <rect
           width="2.6952801"
           height="6.289"
           transform="matrix(1,0,0,-1,18.1875,133.441)"
           fill="url(#paint3_linear_47_40)"
           id="rect842"
           style="fill:url(#linearGradient921)"
           x="0"
           y="0" />
        <path
           d="m 49.7474,144.783 v -17.434 h 7.2038 c 0.1695,0 0.3874,0.008 0.6538,0.024 0.2663,0.008 0.5125,0.032 0.7385,0.073 1.009,0.153 1.8403,0.488 2.4941,1.004 0.6619,0.517 1.1502,1.171 1.465,1.962 0.3228,0.783 0.4843,1.654 0.4843,2.615 0,1.421 -0.3592,2.643 -1.0776,3.668 -0.7183,1.017 -1.8201,1.647 -3.3052,1.889 l -1.2471,0.109 h -4.4917 v 6.09 z m 10.0127,0 -3.4385,-7.095 2.9663,-0.654 3.7774,7.749 z m -7.0948,-8.814 h 4.1648 c 0.1615,0 0.3431,-0.008 0.5449,-0.024 0.2017,-0.016 0.3874,-0.049 0.5569,-0.097 0.4843,-0.121 0.8636,-0.335 1.1381,-0.642 0.2825,-0.306 0.4802,-0.654 0.5932,-1.041 0.1211,-0.387 0.1816,-0.767 0.1816,-1.138 0,-0.371 -0.0605,-0.751 -0.1816,-1.138 -0.113,-0.396 -0.3107,-0.747 -0.5932,-1.053 -0.2745,-0.307 -0.6538,-0.521 -1.1381,-0.642 -0.1695,-0.049 -0.3552,-0.077 -0.5569,-0.085 -0.2018,-0.016 -0.3834,-0.024 -0.5449,-0.024 h -4.1648 z m 17.9708,9.189 c -0.9686,0 -1.7677,-0.161 -2.3972,-0.484 -0.6296,-0.323 -1.13,-0.734 -1.5013,-1.235 -0.3713,-0.5 -0.6457,-1.033 -0.8233,-1.598 -0.1776,-0.565 -0.2946,-1.098 -0.3511,-1.598 -0.0484,-0.509 -0.0727,-0.92 -0.0727,-1.235 v -7.301 h 2.9542 v 6.296 c 0,0.404 0.0282,0.86 0.0847,1.368 0.0565,0.501 0.1857,0.985 0.3875,1.453 0.2098,0.46 0.5165,0.839 0.9201,1.138 0.4117,0.299 0.9646,0.448 1.6587,0.448 0.3713,0 0.7385,-0.061 1.1018,-0.182 0.3632,-0.121 0.6901,-0.326 0.9806,-0.617 0.2987,-0.299 0.5368,-0.706 0.7144,-1.223 0.1775,-0.516 0.2663,-1.17 0.2663,-1.961 l 1.7313,0.738 c 0,1.114 -0.2179,2.123 -0.6537,3.027 -0.4278,0.904 -1.0614,1.626 -1.9009,2.167 -0.8394,0.533 -1.8725,0.799 -3.0994,0.799 z m 4.2738,-0.375 v -4.056 h -0.3511 v -9.02 h 2.93 v 13.076 z m 15.0245,0 v -6.296 c 0,-0.411 -0.0283,-0.867 -0.0848,-1.368 -0.0565,-0.5 -0.1897,-0.981 -0.3995,-1.441 -0.2018,-0.468 -0.5085,-0.851 -0.9202,-1.15 -0.4035,-0.298 -0.9524,-0.448 -1.6465,-0.448 -0.3713,0 -0.7386,0.061 -1.1018,0.182 -0.3632,0.121 -0.6941,0.331 -0.9928,0.629 -0.2906,0.291 -0.5246,0.695 -0.7022,1.211 -0.1776,0.509 -0.2664,1.162 -0.2664,1.962 l -1.7313,-0.739 c 0,-1.114 0.2139,-2.123 0.6417,-3.027 0.4359,-0.904 1.0735,-1.622 1.9129,-2.155 0.8395,-0.541 1.8726,-0.811 3.0995,-0.811 0.9685,0 1.7676,0.161 2.3972,0.484 0.6296,0.323 1.13,0.735 1.5013,1.235 0.3713,0.501 0.6457,1.033 0.8233,1.598 0.1775,0.565 0.2905,1.102 0.339,1.611 0.0565,0.5 0.0847,0.908 0.0847,1.222 v 7.301 z m -9.0683,0 v -13.076 h 2.603 v 4.056 h 0.3511 v 9.02 z m 15.1818,0 v -17.434 h 2.6273 l 6.0298,12.349 6.029,-12.349 h 2.627 v 17.434 h -2.724 v -11.175 l -5.351,11.175 h -1.163 l -5.3388,-11.175 v 11.175 z m 24.3711,0.363 c -0.944,0 -1.744,-0.177 -2.397,-0.532 -0.654,-0.364 -1.15,-0.844 -1.489,-1.441 -0.331,-0.598 -0.497,-1.255 -0.497,-1.974 0,-0.629 0.105,-1.194 0.315,-1.695 0.21,-0.508 0.533,-0.944 0.968,-1.307 0.436,-0.372 1.001,-0.674 1.695,-0.908 0.525,-0.17 1.139,-0.323 1.841,-0.46 0.71,-0.138 1.477,-0.263 2.3,-0.376 0.832,-0.121 1.699,-0.25 2.603,-0.387 l -1.041,0.593 c 0.008,-0.904 -0.194,-1.57 -0.605,-1.998 -0.412,-0.427 -1.106,-0.641 -2.083,-0.641 -0.589,0 -1.158,0.137 -1.707,0.411 -0.549,0.275 -0.932,0.747 -1.15,1.417 l -2.664,-0.835 c 0.323,-1.106 0.937,-1.994 1.841,-2.664 0.912,-0.67 2.139,-1.005 3.68,-1.005 1.162,0 2.184,0.19 3.063,0.569 0.888,0.379 1.546,1.001 1.974,1.865 0.234,0.46 0.375,0.932 0.424,1.416 0.048,0.476 0.072,0.997 0.072,1.562 v 8.027 h -2.554 v -2.833 l 0.423,0.46 c -0.589,0.944 -1.279,1.639 -2.07,2.082 -0.783,0.436 -1.764,0.654 -2.942,0.654 z M 121,142.822 c 0.662,0 1.227,-0.117 1.695,-0.351 0.468,-0.235 0.84,-0.521 1.114,-0.86 0.282,-0.339 0.472,-0.658 0.569,-0.957 0.153,-0.371 0.238,-0.795 0.254,-1.271 0.024,-0.484 0.037,-0.876 0.037,-1.174 l 0.895,0.266 c -0.879,0.137 -1.634,0.258 -2.264,0.363 -0.629,0.105 -1.17,0.206 -1.622,0.303 -0.452,0.089 -0.851,0.19 -1.199,0.303 -0.339,0.121 -0.625,0.262 -0.859,0.424 -0.234,0.161 -0.416,0.347 -0.545,0.556 -0.121,0.21 -0.182,0.456 -0.182,0.739 0,0.323 0.081,0.609 0.243,0.86 0.161,0.242 0.395,0.435 0.702,0.581 0.315,0.145 0.702,0.218 1.162,0.218 z m 17.378,1.961 c -0.864,0.161 -1.711,0.23 -2.542,0.206 -0.824,-0.016 -1.562,-0.166 -2.216,-0.448 -0.654,-0.291 -1.15,-0.747 -1.489,-1.368 -0.299,-0.565 -0.456,-1.142 -0.472,-1.732 -0.017,-0.589 -0.025,-1.255 -0.025,-1.997 v -11.369 h 2.906 v 11.199 c 0,0.525 0.004,0.985 0.012,1.38 0.016,0.396 0.101,0.719 0.254,0.969 0.291,0.484 0.755,0.755 1.393,0.811 0.637,0.057 1.364,0.024 2.179,-0.097 z m -9.117,-10.787 v -2.289 h 9.117 v 2.289 z m 17.211,11.15 c -1.323,0 -2.486,-0.286 -3.487,-0.859 -1,-0.573 -1.783,-1.368 -2.348,-2.385 -0.557,-1.017 -0.836,-2.188 -0.836,-3.512 0,-1.428 0.275,-2.667 0.823,-3.716 0.549,-1.058 1.312,-1.877 2.289,-2.458 0.976,-0.581 2.106,-0.872 3.39,-0.872 1.356,0 2.506,0.319 3.45,0.957 0.953,0.629 1.659,1.521 2.119,2.675 0.46,1.154 0.634,2.514 0.521,4.08 h -2.894 v -1.065 c -0.008,-1.421 -0.258,-2.458 -0.751,-3.112 -0.492,-0.653 -1.267,-0.98 -2.324,-0.98 -1.195,0 -2.083,0.371 -2.664,1.114 -0.581,0.734 -0.871,1.812 -0.871,3.232 0,1.324 0.29,2.349 0.871,3.075 0.581,0.727 1.429,1.09 2.543,1.09 0.718,0 1.336,-0.157 1.852,-0.472 0.525,-0.323 0.928,-0.787 1.211,-1.392 l 2.881,0.871 c -0.5,1.179 -1.275,2.095 -2.324,2.749 -1.041,0.653 -2.192,0.98 -3.451,0.98 z m -4.504,-6.09 v -2.203 h 8.996 v 2.203 z"
           fill="#ffffff"
           id="path844" />
      </g>
    </g>
  </g>
</svg>
